<svg viewBox="0 0 60 60" fill="none" xmlns="http://www.w3.org/2000/svg">
<path d="M33.9603 17.5C33.2717 15.9212 32.2642 14.5017 31.0011 13.3306C29.738 12.1594 28.2466 11.2619 26.6203 10.6944C24.994 10.1268 23.268 9.90136 21.5505 10.0322C19.833 10.1631 18.1611 10.6475 16.6396 11.455C15.1181 12.2624 13.7799 13.3756 12.7089 14.7246C11.6378 16.0736 10.8571 17.6293 10.4156 19.2943C9.97418 20.9592 9.88152 22.6974 10.1435 24.3999C10.4054 26.1023 11.0163 27.7323 11.9378 29.1875L10.0003 35L15.8128 33.0625C16.3495 33.4025 16.912 33.7017 17.5003 33.96" stroke="white" stroke-width="2" stroke-linecap="round" stroke-linejoin="round"/>
<path d="M37.5001 50C34.7266 49.9996 32.032 49.0768 29.8406 47.3769C27.6491 45.677 26.0852 43.2965 25.3951 40.6103C24.705 37.924 24.9279 35.0845 26.0287 32.5388C27.1295 29.9931 29.0456 27.8858 31.4755 26.5487C33.9054 25.2115 36.7109 24.7205 39.4505 25.1528C42.1901 25.5852 44.7081 26.9164 46.6081 28.9368C48.5081 30.9573 49.6822 33.5523 49.9455 36.3132C50.2088 39.0742 49.5464 41.8443 48.0626 44.1875L50.0001 50L44.1876 48.0625C42.1869 49.3287 39.8678 50.0006 37.5001 50Z" fill="white" stroke="white" stroke-width="2" stroke-linecap="round" stroke-linejoin="round"/>
</svg>
