<svg  viewBox="0 0 48 48" fill="none" xmlns="http://www.w3.org/2000/svg">
<path d="M18.5004 44L17.7004 37.6C17.2671 37.4333 16.8591 37.2333 16.4764 37C16.0937 36.7667 15.7184 36.5167 15.3504 36.25L9.40039 38.75L3.90039 29.25L9.05039 25.35C9.01706 25.1167 9.00039 24.892 9.00039 24.676V23.326C9.00039 23.1087 9.01706 22.8833 9.05039 22.65L3.90039 18.75L9.40039 9.25L15.3504 11.75C15.7171 11.4833 16.1004 11.2333 16.5004 11C16.9004 10.7667 17.3004 10.5667 17.7004 10.4L18.5004 4H29.5004L30.3004 10.4C30.7337 10.5667 31.1424 10.7667 31.5264 11C31.9104 11.2333 32.2851 11.4833 32.6504 11.75L38.6004 9.25L44.1004 18.75L38.9504 22.65C38.9837 22.8833 39.0004 23.1087 39.0004 23.326V24.674C39.0004 24.8913 38.9671 25.1167 38.9004 25.35L44.0504 29.25L38.5504 38.75L32.6504 36.25C32.2837 36.5167 31.9004 36.7667 31.5004 37C31.1004 37.2333 30.7004 37.4333 30.3004 37.6L29.5004 44H18.5004ZM22.0004 40H25.9504L26.6504 34.7C27.6837 34.4333 28.6424 34.042 29.5264 33.526C30.4104 33.01 31.2184 32.3847 31.9504 31.65L36.9004 33.7L38.8504 30.3L34.5504 27.05C34.7171 26.5833 34.8337 26.092 34.9004 25.576C34.9671 25.06 35.0004 24.5347 35.0004 24C35.0004 23.4653 34.9671 22.9407 34.9004 22.426C34.8337 21.9113 34.7171 21.4193 34.5504 20.95L38.8504 17.7L36.9004 14.3L31.9504 16.4C31.2171 15.6333 30.4091 14.992 29.5264 14.476C28.6437 13.96 27.6851 13.568 26.6504 13.3L26.0004 8H22.0504L21.3504 13.3C20.3171 13.5667 19.3591 13.9587 18.4764 14.476C17.5937 14.9933 16.7851 15.618 16.0504 16.35L11.1004 14.3L9.15039 17.7L13.4504 20.9C13.2837 21.4 13.1671 21.9 13.1004 22.4C13.0337 22.9 13.0004 23.4333 13.0004 24C13.0004 24.5333 13.0337 25.05 13.1004 25.55C13.1671 26.05 13.2837 26.55 13.4504 27.05L9.15039 30.3L11.1004 33.7L16.0504 31.6C16.7837 32.3667 17.5924 33.0087 18.4764 33.526C19.3604 34.0433 20.3184 34.4347 21.3504 34.7L22.0004 40ZM24.1004 31C26.0337 31 27.6837 30.3167 29.0504 28.95C30.4171 27.5833 31.1004 25.9333 31.1004 24C31.1004 22.0667 30.4171 20.4167 29.0504 19.05C27.6837 17.6833 26.0337 17 24.1004 17C22.1337 17 20.4751 17.6833 19.1244 19.05C17.7737 20.4167 17.0991 22.0667 17.1004 24C17.1017 25.9333 17.7771 27.5833 19.1264 28.95C20.4757 30.3167 22.1337 31 24.1004 31Z" fill="white"/>
</svg>
