<svg viewBox="0 0 56 56" fill="none" xmlns="http://www.w3.org/2000/svg">
<path d="M19.5644 28.7187H36.4344V26.3853H19.5644V28.7187ZM19.5644 35.1797H36.4344V32.8463H19.5644V35.1797ZM19.5644 41.643H29.4343V39.3097H19.5644V41.643ZM15.4343 49C14.361 49 13.465 48.6407 12.7463 47.922C12.0277 47.2033 11.6676 46.3066 11.666 45.2317V10.7683C11.666 9.695 12.0261 8.799 12.7463 8.08033C13.4666 7.36167 14.3633 7.00156 15.4367 7H33.8327L44.3327 17.5V45.2317C44.3327 46.305 43.9734 47.2018 43.2547 47.922C42.536 48.6422 41.6385 49.0016 40.562 49H15.4343ZM32.666 18.6667V9.33333H15.4367C15.0773 9.33333 14.7476 9.48267 14.4473 9.78133C14.1471 10.08 13.9978 10.409 13.9993 10.7683V45.2317C13.9993 45.5894 14.1487 45.9184 14.4473 46.2187C14.746 46.5189 15.075 46.6682 15.4343 46.6667H40.5644C40.9221 46.6667 41.2511 46.5173 41.5514 46.2187C41.8516 45.92 42.0009 45.5902 41.9994 45.2293V18.6667H32.666Z" fill="white"/>
</svg>
