<svg viewBox="0 0 50 50" fill="none" xmlns="http://www.w3.org/2000/svg">
<path d="M27.2285 21.6873C28.494 19.919 29.1745 17.7992 29.1745 15.6248C29.1745 13.4503 28.494 11.3305 27.2285 9.56225C28.4135 8.75502 29.8156 8.32642 31.2494 8.33308C33.1832 8.33308 35.0379 9.10131 36.4053 10.4688C37.7728 11.8362 38.541 13.6909 38.541 15.6248C38.541 17.5586 37.7728 19.4133 36.4053 20.7807C35.0379 22.1482 33.1832 22.9164 31.2494 22.9164C29.8156 22.9231 28.4135 22.4945 27.2285 21.6873ZM11.4577 15.6248C11.4577 14.1826 11.8853 12.7728 12.6866 11.5737C13.4878 10.3746 14.6266 9.44002 15.9589 8.88813C17.2913 8.33624 18.7574 8.19184 20.1719 8.47319C21.5863 8.75454 22.8856 9.44901 23.9053 10.4688C24.9251 11.4885 25.6196 12.7878 25.9009 14.2022C26.1823 15.6167 26.0379 17.0828 25.486 18.4151C24.9341 19.7475 23.9995 20.8863 22.8004 21.6876C21.6013 22.4888 20.1915 22.9164 18.7493 22.9164C16.8155 22.9164 14.9608 22.1482 13.5934 20.7807C12.2259 19.4133 11.4577 17.5586 11.4577 15.6248ZM15.6243 15.6248C15.6243 16.2428 15.8076 16.847 16.151 17.3609C16.4944 17.8748 16.9824 18.2754 17.5535 18.5119C18.1245 18.7484 18.7528 18.8103 19.359 18.6897C19.9652 18.5691 20.522 18.2715 20.9591 17.8345C21.3961 17.3974 21.6937 16.8406 21.8143 16.2344C21.9349 15.6282 21.873 14.9999 21.6365 14.4289C21.4 13.8578 20.9994 13.3698 20.4855 13.0264C19.9716 12.683 19.3674 12.4998 18.7493 12.4998C17.9205 12.4998 17.1257 12.829 16.5396 13.415C15.9536 14.0011 15.6243 14.7959 15.6243 15.6248ZM33.3327 35.4164V39.5831H4.16602V35.4164C4.16602 35.4164 4.16602 27.0831 18.7493 27.0831C33.3327 27.0831 33.3327 35.4164 33.3327 35.4164ZM29.166 35.4164C28.8744 33.7914 26.3952 31.2498 18.7493 31.2498C11.1035 31.2498 8.47852 33.9789 8.33268 35.4164M33.2285 27.0831C34.5054 28.0763 35.5494 29.3369 36.2872 30.7766C37.025 32.2162 37.4388 33.7999 37.4994 35.4164V39.5831H45.8327V35.4164C45.8327 35.4164 45.8327 27.8539 33.2077 27.0831H33.2285Z" fill="white"/>
</svg>
