<svg viewBox="0 0 56 56" fill="none" xmlns="http://www.w3.org/2000/svg">
<path fill-rule="evenodd" clip-rule="evenodd" d="M26.8331 4.9796C27.1878 4.77481 27.5902 4.66699 27.9998 4.66699C28.4094 4.66699 28.8118 4.77481 29.1665 4.9796L33.8331 7.6746C34.3647 7.98622 34.7514 8.49543 34.9089 9.09112C35.0664 9.68681 34.9819 10.3206 34.6738 10.8542C34.3657 11.3878 33.8591 11.7779 33.2644 11.9393C32.6698 12.1008 32.0354 12.0205 31.4998 11.7159L30.3331 11.0416V14.0003C30.3331 14.6191 30.0873 15.2126 29.6497 15.6502C29.2121 16.0878 28.6186 16.3336 27.9998 16.3336C27.381 16.3336 26.7875 16.0878 26.3499 15.6502C25.9123 15.2126 25.6665 14.6191 25.6665 14.0003V11.0416L24.4998 11.7159C23.9642 12.0205 23.3298 12.1008 22.7352 11.9393C22.1406 11.7779 21.6339 11.3878 21.3258 10.8542C21.0177 10.3206 20.9332 9.68681 21.0907 9.09112C21.2482 8.49543 21.6349 7.98622 22.1665 7.6746L26.8331 4.9796ZM16.5011 13.6386C16.8105 14.1745 16.8944 14.8114 16.7342 15.4091C16.5741 16.0069 16.183 16.5165 15.6471 16.8259L14.4805 17.5003L17.0425 18.9796C17.31 19.1317 17.5448 19.3352 17.7333 19.5784C17.9218 19.8216 18.0604 20.0997 18.141 20.3967C18.2216 20.6936 18.2427 21.0036 18.2031 21.3088C18.1634 21.6139 18.0638 21.9082 17.9099 22.1747C17.7561 22.4412 17.551 22.6746 17.3066 22.8615C17.0621 23.0485 16.7831 23.1852 16.4856 23.2638C16.1881 23.3425 15.878 23.3615 15.5731 23.3198C15.2682 23.2781 14.9746 23.1766 14.7091 23.0209L12.1471 21.5416V22.8879C12.1471 23.5068 11.9013 24.1003 11.4637 24.5378C11.0261 24.9754 10.4326 25.2213 9.8138 25.2213C9.19496 25.2213 8.60147 24.9754 8.16389 24.5378C7.7263 24.1003 7.48047 23.5068 7.48047 22.8879V17.5003C7.48089 17.0911 7.5889 16.6892 7.79367 16.335C7.99845 15.9807 8.29277 15.6865 8.64714 15.4819L13.3138 12.7869C13.8497 12.4775 14.4866 12.3937 15.0843 12.5538C15.6821 12.714 16.1917 13.105 16.5011 13.6409V13.6386ZM39.4985 13.6386C39.8079 13.1027 40.3175 12.7117 40.9153 12.5515C41.513 12.3913 42.1499 12.4752 42.6858 12.7846L47.3525 15.4796C47.7072 15.6844 48.0017 15.9789 48.2065 16.3336C48.4113 16.6883 48.5191 17.0907 48.5191 17.5003V22.8903C48.5191 23.5091 48.2733 24.1026 47.8357 24.5402C47.3981 24.9778 46.8046 25.2236 46.1858 25.2236C45.567 25.2236 44.9735 24.9778 44.5359 24.5402C44.0983 24.1026 43.8525 23.5091 43.8525 22.8903V21.5416L41.2905 23.0209C40.7548 23.3255 40.1205 23.4058 39.5258 23.2443C38.9312 23.0829 38.4246 22.6928 38.1165 22.1592C37.8084 21.6256 37.7239 20.9918 37.8814 20.3961C38.0389 19.8004 38.4256 19.2912 38.9571 18.9796L41.5191 17.5003L40.3525 16.8259C39.8166 16.5165 39.4255 16.0069 39.2654 15.4091C39.1052 14.8114 39.1891 14.1745 39.4985 13.6386ZM19.9171 23.3336C20.2266 22.7977 20.7362 22.4067 21.3339 22.2465C21.9317 22.0863 22.5686 22.1702 23.1045 22.4796L27.9998 25.3053L32.8951 22.4796C33.4308 22.1751 34.0651 22.0947 34.6597 22.2562C35.2544 22.4176 35.761 22.8077 36.0691 23.3413C36.3772 23.8749 36.4617 24.5087 36.3042 25.1044C36.1467 25.7001 35.76 26.2093 35.2285 26.5209L30.3331 29.3466V35.0003C30.3331 35.6191 30.0873 36.2126 29.6497 36.6502C29.2121 37.0878 28.6186 37.3336 27.9998 37.3336C27.381 37.3336 26.7875 37.0878 26.3499 36.6502C25.9123 36.2126 25.6665 35.6191 25.6665 35.0003V29.3466L20.7711 26.5209C20.2352 26.2115 19.8442 25.7019 19.684 25.1041C19.5239 24.5064 19.6077 23.8695 19.9171 23.3336ZM9.8138 30.7769C10.4326 30.7769 11.0261 31.0228 11.4637 31.4604C11.9013 31.8979 12.1471 32.4914 12.1471 33.1103V34.4589L14.7091 32.9796C15.2448 32.6751 15.8791 32.5947 16.4738 32.7562C17.0684 32.9176 17.575 33.3077 17.8831 33.8413C18.1912 34.3749 18.2757 35.0087 18.1182 35.6044C17.9607 36.2001 17.574 36.7093 17.0425 37.0209L14.4805 38.5003L15.6471 39.1746C15.9146 39.3267 16.1494 39.5302 16.338 39.7734C16.5265 40.0166 16.6651 40.2947 16.7457 40.5917C16.8263 40.8886 16.8474 41.1986 16.8077 41.5038C16.7681 41.8089 16.6684 42.1032 16.5146 42.3697C16.3607 42.6362 16.1557 42.8696 15.9112 43.0565C15.6668 43.2435 15.3878 43.3802 15.0903 43.4588C14.7928 43.5375 14.4827 43.5565 14.1778 43.5148C13.8729 43.4731 13.5793 43.3716 13.3138 43.2159L8.64714 40.5209C8.29243 40.3161 7.99788 40.0216 7.79309 39.6669C7.5883 39.3122 7.48048 38.9098 7.48047 38.5003V33.1103C7.48047 32.4914 7.7263 31.8979 8.16389 31.4604C8.60147 31.0228 9.19496 30.7769 9.8138 30.7769ZM46.1858 30.7769C46.8046 30.7769 47.3981 31.0228 47.8357 31.4604C48.2733 31.8979 48.5191 32.4914 48.5191 33.1103V38.5003C48.5191 38.9098 48.4113 39.3122 48.2065 39.6669C48.0017 40.0216 47.7072 40.3161 47.3525 40.5209L42.6858 43.2159C42.4203 43.3716 42.1267 43.4731 41.8218 43.5148C41.5169 43.5565 41.2068 43.5375 40.9093 43.4588C40.6118 43.3802 40.3328 43.2435 40.0884 43.0565C39.8439 42.8696 39.6389 42.6362 39.485 42.3697C39.3312 42.1032 39.2315 41.8089 39.1919 41.5038C39.1522 41.1986 39.1733 40.8886 39.2539 40.5917C39.3345 40.2947 39.4731 40.0166 39.6616 39.7734C39.8502 39.5302 40.085 39.3267 40.3525 39.1746L41.5191 38.5003L38.9571 37.0209C38.6896 36.8688 38.4548 36.6653 38.2663 36.4221C38.0778 36.1789 37.9392 35.9009 37.8586 35.6039C37.778 35.3069 37.7569 34.9969 37.7965 34.6918C37.8362 34.3866 37.9358 34.0923 38.0897 33.8258C38.2435 33.5593 38.4486 33.3259 38.693 33.139C38.9375 32.9521 39.2165 32.8154 39.514 32.7367C39.8115 32.6581 40.1216 32.639 40.4265 32.6807C40.7314 32.7224 41.025 32.824 41.2905 32.9796L43.8525 34.4589V33.1126C43.8525 32.4938 44.0983 31.9003 44.5359 31.4627C44.9735 31.0251 45.567 30.7793 46.1858 30.7793V30.7769ZM27.9998 39.6669C28.6186 39.6669 29.2121 39.9128 29.6497 40.3503C30.0873 40.7879 30.3331 41.3814 30.3331 42.0003V44.9589L31.4998 44.2846C31.7653 44.129 32.0589 44.0274 32.3638 43.9857C32.6687 43.944 32.9788 43.9631 33.2763 44.0417C33.5738 44.1204 33.8528 44.2571 34.0972 44.444C34.3417 44.6309 34.5467 44.8643 34.7006 45.1308C34.8544 45.3973 34.9541 45.6916 34.9937 45.9968C35.0334 46.3019 35.0123 46.6119 34.9317 46.9089C34.8511 47.2059 34.7125 47.4839 34.524 47.7271C34.3354 47.9703 34.1006 48.1738 33.8331 48.3259L29.1665 51.0209C28.8118 51.2257 28.4094 51.3335 27.9998 51.3335C27.5902 51.3335 27.1878 51.2257 26.8331 51.0209L22.1665 48.3259C21.899 48.1738 21.6642 47.9703 21.4756 47.7271C21.2871 47.4839 21.1485 47.2059 21.0679 46.9089C20.9873 46.6119 20.9662 46.3019 21.0059 45.9968C21.0455 45.6916 21.1452 45.3973 21.299 45.1308C21.4529 44.8643 21.6579 44.6309 21.9024 44.444C22.1468 44.2571 22.4258 44.1204 22.7233 44.0417C23.0208 43.9631 23.3309 43.944 23.6358 43.9857C23.9407 44.0274 24.2343 44.129 24.4998 44.2846L25.6665 44.9589V42.0003C25.6665 41.3814 25.9123 40.7879 26.3499 40.3503C26.7875 39.9128 27.381 39.6669 27.9998 39.6669Z" fill="white"/>
</svg>
