<svg viewBox="0 0 50 50" fill="none" xmlns="http://www.w3.org/2000/svg">
<path d="M24.9994 29.1665C25.4114 29.1665 25.8142 29.0443 26.1568 28.8154C26.4994 28.5865 26.7664 28.2611 26.9241 27.8804C27.0818 27.4998 27.123 27.0809 27.0427 26.6767C26.9623 26.2726 26.7638 25.9014 26.4725 25.61C26.1811 25.3187 25.8099 25.1203 25.4058 25.0399C25.0017 24.9595 24.5828 25.0007 24.2021 25.1584C23.8214 25.3161 23.496 25.5831 23.2671 25.9257C23.0382 26.2683 22.916 26.6711 22.916 27.0832C22.916 27.6357 23.1355 28.1656 23.5262 28.5563C23.9169 28.947 24.4468 29.1665 24.9994 29.1665ZM35.416 29.1665C35.8281 29.1665 36.2309 29.0443 36.5735 28.8154C36.9161 28.5865 37.1831 28.2611 37.3408 27.8804C37.4985 27.4998 37.5397 27.0809 37.4593 26.6767C37.3789 26.2726 37.1805 25.9014 36.8892 25.61C36.5978 25.3187 36.2266 25.1203 35.8225 25.0399C35.4183 24.9595 34.9994 25.0007 34.6188 25.1584C34.2381 25.3161 33.9127 25.5831 33.6838 25.9257C33.4549 26.2683 33.3327 26.6711 33.3327 27.0832C33.3327 27.6357 33.5522 28.1656 33.9429 28.5563C34.3336 28.947 34.8635 29.1665 35.416 29.1665ZM24.9994 37.4998C25.4114 37.4998 25.8142 37.3777 26.1568 37.1487C26.4994 36.9198 26.7664 36.5944 26.9241 36.2138C27.0818 35.8331 27.123 35.4142 27.0427 35.0101C26.9623 34.6059 26.7638 34.2347 26.4725 33.9434C26.1811 33.652 25.8099 33.4536 25.4058 33.3732C25.0017 33.2928 24.5828 33.3341 24.2021 33.4918C23.8214 33.6494 23.496 33.9165 23.2671 34.2591C23.0382 34.6017 22.916 35.0045 22.916 35.4165C22.916 35.969 23.1355 36.4989 23.5262 36.8896C23.9169 37.2803 24.4468 37.4998 24.9994 37.4998ZM35.416 37.4998C35.8281 37.4998 36.2309 37.3777 36.5735 37.1487C36.9161 36.9198 37.1831 36.5944 37.3408 36.2138C37.4985 35.8331 37.5397 35.4142 37.4593 35.0101C37.3789 34.6059 37.1805 34.2347 36.8892 33.9434C36.5978 33.652 36.2266 33.4536 35.8225 33.3732C35.4183 33.2928 34.9994 33.3341 34.6188 33.4918C34.2381 33.6494 33.9127 33.9165 33.6838 34.2591C33.4549 34.6017 33.3327 35.0045 33.3327 35.4165C33.3327 35.969 33.5522 36.4989 33.9429 36.8896C34.3336 37.2803 34.8635 37.4998 35.416 37.4998ZM14.5827 29.1665C14.9947 29.1665 15.3975 29.0443 15.7401 28.8154C16.0827 28.5865 16.3497 28.2611 16.5074 27.8804C16.6651 27.4998 16.7064 27.0809 16.626 26.6767C16.5456 26.2726 16.3472 25.9014 16.0558 25.61C15.7645 25.3187 15.3932 25.1203 14.9891 25.0399C14.585 24.9595 14.1661 25.0007 13.7854 25.1584C13.4047 25.3161 13.0794 25.5831 12.8505 25.9257C12.6215 26.2683 12.4993 26.6711 12.4993 27.0832C12.4993 27.6357 12.7188 28.1656 13.1095 28.5563C13.5002 28.947 14.0301 29.1665 14.5827 29.1665ZM39.5827 8.33317H37.4994V6.24984C37.4994 5.6973 37.2799 5.1674 36.8892 4.7767C36.4985 4.386 35.9686 4.1665 35.416 4.1665C34.8635 4.1665 34.3336 4.386 33.9429 4.7767C33.5522 5.1674 33.3327 5.6973 33.3327 6.24984V8.33317H16.666V6.24984C16.666 5.6973 16.4465 5.1674 16.0558 4.7767C15.6651 4.386 15.1352 4.1665 14.5827 4.1665C14.0301 4.1665 13.5002 4.386 13.1095 4.7767C12.7188 5.1674 12.4993 5.6973 12.4993 6.24984V8.33317H10.416C8.75841 8.33317 7.1687 8.99165 5.9966 10.1638C4.8245 11.3359 4.16602 12.9256 4.16602 14.5832V39.5832C4.16602 41.2408 4.8245 42.8305 5.9966 44.0026C7.1687 45.1747 8.75841 45.8332 10.416 45.8332H39.5827C41.2403 45.8332 42.83 45.1747 44.0021 44.0026C45.1742 42.8305 45.8327 41.2408 45.8327 39.5832V14.5832C45.8327 12.9256 45.1742 11.3359 44.0021 10.1638C42.83 8.99165 41.2403 8.33317 39.5827 8.33317ZM41.666 39.5832C41.666 40.1357 41.4465 40.6656 41.0558 41.0563C40.6651 41.447 40.1352 41.6665 39.5827 41.6665H10.416C9.86348 41.6665 9.33358 41.447 8.94288 41.0563C8.55218 40.6656 8.33268 40.1357 8.33268 39.5832V20.8332H41.666V39.5832ZM41.666 16.6665H8.33268V14.5832C8.33268 14.0306 8.55218 13.5007 8.94288 13.11C9.33358 12.7193 9.86348 12.4998 10.416 12.4998H39.5827C40.1352 12.4998 40.6651 12.7193 41.0558 13.11C41.4465 13.5007 41.666 14.0306 41.666 14.5832V16.6665ZM14.5827 37.4998C14.9947 37.4998 15.3975 37.3777 15.7401 37.1487C16.0827 36.9198 16.3497 36.5944 16.5074 36.2138C16.6651 35.8331 16.7064 35.4142 16.626 35.0101C16.5456 34.6059 16.3472 34.2347 16.0558 33.9434C15.7645 33.652 15.3932 33.4536 14.9891 33.3732C14.585 33.2928 14.1661 33.3341 13.7854 33.4918C13.4047 33.6494 13.0794 33.9165 12.8505 34.2591C12.6215 34.6017 12.4993 35.0045 12.4993 35.4165C12.4993 35.969 12.7188 36.4989 13.1095 36.8896C13.5002 37.2803 14.0301 37.4998 14.5827 37.4998Z" fill="white"/>
</svg>
